{
    "asset" : {
        "generator" : "Khronos glTF Blender I/O v1.7.33",
        "version" : "2.0"
    },
    "scene" : 0,
    "scenes" : [
        {
            "name" : "Scene",
            "nodes" : [
                0
            ]
        }
    ],
    "nodes" : [
        {
            "mesh" : 0,
            "name" : "Sphere"
        }
    ],
    "meshes" : [
        {
            "name" : "Sphere",
            "primitives" : [
                {
                    "attributes" : {
                        "POSITION" : 0,
                        "NORMAL" : 1,
                        "TANGENT" : 2,
                        "TEXCOORD_0" : 3
                    },
                    "indices" : 4
                }
            ]
        }
    ],
    "accessors" : [
        {
            "bufferView" : 0,
            "componentType" : 5126,
            "count" : 1104,
            "max" : [
                0.9999998211860657,
                1,
                0.9999997019767761
            ],
            "min" : [
                -0.999999463558197,
                -1,
                -0.9999994039535522
            ],
            "type" : "VEC3"
        },
        {
            "bufferView" : 1,
            "componentType" : 5126,
            "count" : 1104,
            "type" : "VEC3"
        },
        {
            "bufferView" : 2,
            "componentType" : 5126,
            "count" : 1104,
            "type" : "VEC4"
        },
        {
            "bufferView" : 3,
            "componentType" : 5126,
            "count" : 1104,
            "type" : "VEC2"
        },
        {
            "bufferView" : 4,
            "componentType" : 5123,
            "count" : 1584,
            "type" : "SCALAR"
        }
    ],
    "bufferViews" : [
        {
            "buffer" : 0,
            "byteLength" : 13248,
            "byteOffset" : 0
        },
        {
            "buffer" : 0,
            "byteLength" : 13248,
            "byteOffset" : 13248
        },
        {
            "buffer" : 0,
            "byteLength" : 17664,
            "byteOffset" : 26496
        },
        {
            "buffer" : 0,
            "byteLength" : 8832,
            "byteOffset" : 44160
        },
        {
            "buffer" : 0,
            "byteLength" : 3168,
            "byteOffset" : 52992
        }
    ],
    "buffers" : [
        {
            "byteLength" : 56160,
            "uri" : "data:application/octet-stream;base64,"
        }
    ]
}
