{
  "accessors": [
    {
      "bufferView": 2,
      "componentType": 5126,
      "count": 3744,
      "max": [
        211.9060516357422,
        345.7454833984375,
        373.66162109375
      ],
      "min": [
        -191.2209930419922,
        -319.2413635253906,
        -0.9747340083122253
      ],
      "type": "VEC3"
    },
    {
      "bufferView": 2,
      "byteOffset": 44928,
      "componentType": 5126,
      "count": 3744,
      "max": [
        0.9999944567680359,
        1.0,
        0.9999998807907104
      ],
      "min": [
        -0.9999945163726807,
        -1.0,
        -0.9999995231628418
      ],
      "type": "VEC3"
    },
    {
      "bufferView": 3,
      "componentType": 5126,
      "count": 3744,
      "max": [
        1.0,
        0.9995719790458679,
        0.9998719096183777,
        1.0
      ],
      "min": [
        -1.0,
        -0.9997583031654358,
        -0.999980092048645,
        -1.0
      ],
      "type": "VEC4"
    },
    {
      "bufferView": 1,
      "componentType": 5126,
      "count": 3744,
      "max": [
        0.9714900255203247,
        0.9770579934120178
      ],
      "min": [
        0.028994999825954437,
        0.025296999141573906
      ],
      "type": "VEC2"
    },
    {
      "bufferView": 0,
      "componentType": 5125,
      "count": 17814,
      "type": "SCALAR"
    },
    {
      "bufferView": 2,
      "byteOffset": 89856,
      "componentType": 5126,
      "count": 4,
      "max": [
        419.05792236328125,
        480.63861083984375,
        0.0
      ],
      "min": [
        -392.7550048828125,
        -480.63861083984375,
        0.0
      ],
      "type": "VEC3"
    },
    {
      "bufferView": 2,
      "byteOffset": 89904,
      "componentType": 5126,
      "count": 4,
      "max": [
        0.0,
        -0.0,
        1.0
      ],
      "min": [
        0.0,
        -0.0,
        1.0
      ],
      "type": "VEC3"
    },
    {
      "bufferView": 1,
      "byteOffset": 29952,
      "componentType": 5126,
      "count": 4,
      "max": [
        0.9217829704284668,
        0.9906799793243408
      ],
      "min": [
        0.09665700048208237,
        0.013638000003993511
      ],
      "type": "VEC2"
    },
    {
      "bufferView": 0,
      "byteOffset": 71256,
      "componentType": 5125,
      "count": 6,
      "type": "SCALAR"
    },
    {
      "bufferView": 2,
      "byteOffset": 89952,
      "componentType": 5126,
      "count": 1518,
      "max": [
        152.65972900390625,
        246.80709838867188,
        250.7470703125
      ],
      "min": [
        -152.65994262695313,
        -163.09568786621094,
        55.08576583862305
      ],
      "type": "VEC3"
    },
    {
      "bufferView": 2,
      "byteOffset": 108168,
      "componentType": 5126,
      "count": 1518,
      "max": [
        1.0,
        1.0,
        1.0
      ],
      "min": [
        -1.0,
        -0.9999832510948181,
        -1.0
      ],
      "type": "VEC3"
    },
    {
      "bufferView": 3,
      "byteOffset": 59904,
      "componentType": 5126,
      "count": 1518,
      "max": [
        1.0,
        0.9999992251396179,
        0.9999831914901733,
        1.0
      ],
      "min": [
        -1.0,
        -0.9947210550308228,
        -0.9999755024909973,
        -1.0
      ],
      "type": "VEC4"
    },
    {
      "bufferView": 1,
      "byteOffset": 29984,
      "componentType": 5126,
      "count": 1518,
      "max": [
        0.949675977230072,
        0.9675920009613037
      ],
      "min": [
        0.010204000398516655,
        0.021849000826478004
      ],
      "type": "VEC2"
    },
    {
      "bufferView": 0,
      "byteOffset": 71280,
      "componentType": 5125,
      "count": 6744,
      "type": "SCALAR"
    },
    {
      "bufferView": 2,
      "byteOffset": 126384,
      "componentType": 5126,
      "count": 146,
      "max": [
        153.28758239746094,
        228.1385498046875,
        345.7152404785156
      ],
      "min": [
        -153.28758239746094,
        -134.83203125,
        216.74916076660156
      ],
      "type": "VEC3"
    },
    {
      "bufferView": 2,
      "byteOffset": 128136,
      "componentType": 5126,
      "count": 146,
      "max": [
        0.9919489026069641,
        0.8761652112007141,
        0.6334739923477173
      ],
      "min": [
        -0.9919487833976746,
        -0.8805238604545593,
        0.12631098926067352
      ],
      "type": "VEC3"
    },
    {
      "bufferView": 3,
      "byteOffset": 84192,
      "componentType": 5126,
      "count": 146,
      "max": [
        -0.1266108602285385,
        0.15427032113075256,
        0.9906805157661438,
        1.0
      ],
      "min": [
        -1.0,
        -0.15422381460666656,
        -0.9906803965568542,
        1.0
      ],
      "type": "VEC4"
    },
    {
      "bufferView": 1,
      "byteOffset": 42128,
      "componentType": 5126,
      "count": 146,
      "max": [
        0.9541069865226746,
        0.904528021812439
      ],
      "min": [
        0.5937049984931946,
        0.5490429997444153
      ],
      "type": "VEC2"
    },
    {
      "bufferView": 0,
      "byteOffset": 98256,
      "componentType": 5125,
      "count": 450,
      "type": "SCALAR"
    }
  ],
  "asset": {
    "extras": {
      "author": "Slava Z. (https://sketchfab.com/slava)",
      "license": "CC-BY-4.0 (http://creativecommons.org/licenses/by/4.0/)",
      "source": "https://sketchfab.com/3d-models/pony-cartoon-885d9f60b3a9429bb4077cfac5653cf9",
      "title": "Pony Cartoon"
    },
    "generator": "Sketchfab-12.66.0",
    "version": "2.0"
  },
  "bufferViews": [
    {
      "buffer": 0,
      "byteLength": 100056,
      "name": "floatBufferViews",
      "target": 34963
    },
    {
      "buffer": 0,
      "byteLength": 43296,
      "byteOffset": 100056,
      "byteStride": 8,
      "name": "floatBufferViews",
      "target": 34962
    },
    {
      "buffer": 0,
      "byteLength": 129888,
      "byteOffset": 143352,
      "byteStride": 12,
      "name": "floatBufferViews",
      "target": 34962
    },
    {
      "buffer": 0,
      "byteLength": 86528,
      "byteOffset": 273240,
      "byteStride": 16,
      "name": "floatBufferViews",
      "target": 34962
    }
  ],
  "buffers": [
    {
      "byteLength": 359768,
      "uri": "scene.bin"
    }
  ],
  "images": [
    {
      "uri": "textures/Body_SG1_baseColor.jpeg"
    },
    {
      "uri": "textures/Body_SG1_metallicRoughness.png"
    },
    {
      "uri": "textures/Body_SG1_emissive.jpeg"
    },
    {
      "uri": "textures/Body_SG1_normal.jpeg"
    },
    {
      "uri": "textures/Ground_SG_baseColor.png"
    },
    {
      "uri": "textures/Interior_SG_baseColor.jpeg"
    },
    {
      "uri": "textures/Interior_SG_metallicRoughness.png"
    },
    {
      "uri": "textures/Interior_SG_normal.jpeg"
    },
    {
      "uri": "textures/Windows_SG_normal.png"
    }
  ],
  "materials": [
    {
      "doubleSided": true,
      "emissiveFactor": [
        1.0,
        1.0,
        1.0
      ],
      "emissiveTexture": {
        "index": 2
      },
      "name": "Body_SG1",
      "normalTexture": {
        "index": 3
      },
      "pbrMetallicRoughness": {
        "baseColorTexture": {
          "index": 0
        },
        "metallicRoughnessTexture": {
          "index": 1
        }
      }
    },
    {
      "alphaMode": "BLEND",
      "doubleSided": true,
      "name": "Ground_SG",
      "pbrMetallicRoughness": {
        "baseColorFactor": [
          0.007726100576177697,
          0.007578138687865271,
          0.007578138687865271,
          1.0
        ],
        "baseColorTexture": {
          "index": 4
        },
        "metallicFactor": 0.0
      }
    },
    {
      "doubleSided": true,
      "name": "Interior_SG",
      "normalTexture": {
        "index": 7
      },
      "pbrMetallicRoughness": {
        "baseColorTexture": {
          "index": 5
        },
        "metallicRoughnessTexture": {
          "index": 6
        }
      }
    },
    {
      "alphaMode": "BLEND",
      "doubleSided": true,
      "name": "Windows_SG",
      "normalTexture": {
        "index": 8
      },
      "pbrMetallicRoughness": {
        "baseColorFactor": [
          1.0,
          1.0,
          1.0,
          0.73
        ],
        "baseColorTexture": {
          "index": 0
        },
        "metallicFactor": 0.0,
        "metallicRoughnessTexture": {
          "index": 1
        }
      }
    }
  ],
  "meshes": [
    {
      "name": "Object_0",
      "primitives": [
        {
          "attributes": {
            "NORMAL": 1,
            "POSITION": 0,
            "TANGENT": 2,
            "TEXCOORD_0": 3
          },
          "indices": 4,
          "material": 0,
          "mode": 4
        }
      ]
    },
    {
      "name": "Object_1",
      "primitives": [
        {
          "attributes": {
            "NORMAL": 6,
            "POSITION": 5,
            "TEXCOORD_0": 7
          },
          "indices": 8,
          "material": 1,
          "mode": 4
        }
      ]
    },
    {
      "name": "Object_2",
      "primitives": [
        {
          "attributes": {
            "NORMAL": 10,
            "POSITION": 9,
            "TANGENT": 11,
            "TEXCOORD_0": 12
          },
          "indices": 13,
          "material": 2,
          "mode": 4
        }
      ]
    },
    {
      "name": "Object_3",
      "primitives": [
        {
          "attributes": {
            "NORMAL": 15,
            "POSITION": 14,
            "TANGENT": 16,
            "TEXCOORD_0": 17
          },
          "indices": 18,
          "material": 3,
          "mode": 4
        }
      ]
    }
  ],
  "nodes": [
    {
      "children": [
        1
      ],
      "matrix": [
        0.003565819002687931,
        0.0,
        0.0,
        0.0,
        0.0,
        7.917708716860108e-19,
        -0.003565819002687931,
        0.0,
        0.0,
        0.003565819002687931,
        7.917708716860108e-19,
        0.0,
        0.0,
        0.0,
        0.0,
        1.0
      ],
      "name": "Sketchfab_model"
    },
    {
      "children": [
        2,
        3,
        4,
        5
      ],
      "name": "Pony_cartoon.obj.cleaner"
    },
    {
      "mesh": 0,
      "name": "Object_2"
    },
    {
      "mesh": 1,
      "name": "Object_3"
    },
    {
      "mesh": 2,
      "name": "Object_4"
    },
    {
      "mesh": 3,
      "name": "Object_5"
    }
  ],
  "samplers": [
    {
      "magFilter": 9729,
      "minFilter": 9987,
      "wrapS": 10497,
      "wrapT": 10497
    }
  ],
  "scene": 0,
  "scenes": [
    {
      "name": "Sketchfab_Scene",
      "nodes": [
        0
      ]
    }
  ],
  "textures": [
    {
      "sampler": 0,
      "source": 0
    },
    {
      "sampler": 0,
      "source": 1
    },
    {
      "sampler": 0,
      "source": 2
    },
    {
      "sampler": 0,
      "source": 3
    },
    {
      "sampler": 0,
      "source": 4
    },
    {
      "sampler": 0,
      "source": 5
    },
    {
      "sampler": 0,
      "source": 6
    },
    {
      "sampler": 0,
      "source": 7
    },
    {
      "sampler": 0,
      "source": 8
    }
  ]
}
